<?xml version="1.0" standalone="no"?>
<!DOCTYPE svg PUBLIC "-//W3C//DTD SVG 20010904//EN"
 "http://www.w3.org/TR/2001/REC-SVG-20010904/DTD/svg10.dtd">
<svg version="1.0" xmlns="http://www.w3.org/2000/svg"
 width="256.000000pt" height="256.000000pt" viewBox="0 0 256.000000 256.000000"
 preserveAspectRatio="xMidYMid meet">
<metadata>
Created by potrace 1.11, written by Peter Selinger 2001-2013
</metadata>
<g transform="translate(0.000000,256.000000) scale(0.100000,-0.100000)"
fill="#000000" stroke="none">
<path d="M1031 2452 c-68 -70 -143 -189 -223 -349 -39 -79 -74 -143 -77 -144
-3 0 -19 -2 -36 -4 -16 -2 -53 -7 -81 -10 -29 -3 -62 -8 -75 -10 -13 -3 -40
-8 -59 -11 -69 -12 -226 -56 -284 -80 -96 -39 -102 -58 -57 -182 33 -93 39
-79 -66 -152 -67 -46 -78 -63 -67 -107 16 -63 134 -215 283 -363 64 -63 115
-117 114 -121 -1 -3 -11 -51 -22 -105 -25 -123 -35 -236 -34 -378 2 -154 6
-159 144 -166 l103 -5 26 -82 c33 -108 51 -127 112 -120 96 12 370 123 511
208 l37 23 38 -23 c140 -85 414 -196 510 -208 61 -7 79 12 112 120 l26 82 89
2 c124 4 131 6 146 50 19 58 16 252 -7 413 -5 33 -32 173 -37 189 -1 4 48 57
109 117 60 60 125 126 142 147 51 59 141 195 148 223 9 34 -8 63 -53 94 -20
14 -54 37 -75 52 l-38 28 30 81 c36 96 37 119 8 146 -37 35 -204 90 -353 118
-79 14 -170 27 -207 28 -24 2 -44 8 -49 17 -5 8 -34 67 -65 130 -64 131 -164
288 -225 355 -56 61 -78 60 -170 -10 -40 -30 -75 -55 -79 -55 -4 0 -40 25 -80
55 -43 33 -84 55 -99 55 -16 0 -40 -16 -70 -48z m133 -130 c104 -79 122 -80
215 -12 38 28 71 50 74 50 3 0 35 -44 71 -98 65 -98 164 -286 185 -353 18 -56
36 -67 126 -73 147 -11 366 -55 452 -91 l32 -14 -24 -68 c-28 -75 -31 -121
-13 -146 14 -17 113 -94 131 -100 35 -11 -219 -307 -345 -401 -43 -32 -48 -54
-30 -116 13 -45 15 -57 33 -160 12 -69 22 -184 23 -275 l1 -70 -96 -5 c-59 -3
-102 -10 -112 -18 -9 -8 -29 -52 -44 -98 l-27 -85 -31 7 c-88 18 -306 117
-425 192 -30 20 -66 35 -80 35 -14 0 -50 -16 -80 -35 -111 -71 -338 -174 -426
-192 l-31 -7 -27 85 c-33 106 -47 116 -169 116 l-84 0 3 93 c2 85 7 141 20
242 3 22 16 83 28 136 26 110 24 119 -40 169 -95 74 -334 343 -334 376 0 5 20
22 45 37 113 72 123 99 80 219 l-25 69 33 14 c50 21 210 59 330 79 16 3 68 8
115 11 49 4 93 12 100 20 8 7 33 58 57 113 62 144 209 389 234 392 2 0 27 -17
55 -38z"/>
<path d="M1236 1609 c-32 -25 -34 -66 -6 -102 17 -21 20 -40 20 -123 l0 -97
-70 70 c-55 55 -70 77 -70 100 0 36 -36 73 -71 73 -37 0 -69 -34 -69 -74 0
-39 25 -65 66 -68 21 -2 49 -22 98 -70 38 -38 66 -69 63 -69 -4 -1 -49 -2 -99
-3 -76 -1 -95 1 -105 15 -25 34 -91 31 -115 -5 -15 -22 -8 -73 12 -91 25 -23
80 -22 100 2 13 15 29 18 105 17 50 -1 94 -2 98 -3 5 0 -21 -31 -58 -67 -48
-48 -76 -67 -96 -69 -63 -5 -93 -80 -49 -120 46 -42 120 -8 120 54 0 20 18 45
70 96 l70 69 0 -98 c0 -83 -3 -102 -20 -123 -26 -34 -25 -66 3 -96 28 -31 72
-30 98 2 24 30 24 62 -1 94 -17 21 -20 40 -20 123 l0 98 70 -69 c52 -51 70
-76 70 -96 0 -60 68 -94 115 -58 51 41 23 118 -44 124 -22 2 -48 20 -95 68
-37 37 -66 68 -66 69 0 2 44 3 98 3 85 -1 100 -3 118 -21 26 -26 78 -21 99 9
51 73 -47 155 -105 89 -12 -14 -33 -17 -112 -17 -63 0 -94 3 -91 10 4 5 33 37
66 71 47 47 67 61 91 62 61 2 88 78 43 120 -13 12 -35 22 -48 22 -33 0 -69
-39 -69 -74 0 -22 -17 -45 -70 -98 l-70 -70 0 101 c0 88 3 104 20 121 29 29
26 74 -6 99 -15 12 -34 21 -44 21 -10 0 -29 -9 -44 -21z"/>
</g>
</svg>
